<?xml version="1.0" encoding="utf-8"?>
<!-- Generator: Adobe Illustrator 23.0.0, SVG Export Plug-In . SVG Version: 6.00 Build 0)  -->
<svg version="1.1" id="Capa_1" xmlns="http://www.w3.org/2000/svg" xmlns:xlink="http://www.w3.org/1999/xlink" x="0px" y="0px"
	 width="212.569px" height="50.12px" viewBox="0 0 212.569 50.12" enable-background="new 0 0 212.569 50.12" xml:space="preserve">
<g>
	<g>
		<g>
			<path fill="#05872F" d="M88.458,36.285c-1.431,0.417-3.29,0.823-5.575,1.219s-4.538,0.594-6.757,0.594
				c-5.125,0-9.21-1.055-12.255-3.164c-3.044-2.109-4.566-5.102-4.566-8.977c0-3.646,1.522-6.567,4.566-8.766
				c3.045-2.198,7.21-3.297,12.496-3.297c2.73,0,4.95,0.185,6.659,0.555c1.708,0.37,3.475,0.873,5.301,1.508v5.453h-0.745
				c-0.394-0.219-0.96-0.528-1.697-0.93c-0.737-0.401-1.457-0.742-2.158-1.023c-0.818-0.333-1.763-0.62-2.836-0.859
				c-1.073-0.239-2.208-0.359-3.406-0.359c-1.402,0-2.68,0.156-3.833,0.469c-1.154,0.313-2.183,0.792-3.088,1.438
				c-0.862,0.625-1.544,1.417-2.048,2.375c-0.503,0.958-0.755,2.073-0.755,3.344c0,2.719,0.956,4.724,2.869,6.016
				c1.913,1.292,4.526,1.938,7.841,1.938c0.292,0,0.635-0.005,1.03-0.016c0.394-0.01,0.737-0.026,1.029-0.047v-4.563h-6.33v-4.359
				h14.259V36.285z"/>
		</g>
		<g>
			<path d="M34.328,37.613V14.348h22.057v4.438H42.476v4.078H55.29v4.438H42.476v5.875h13.909v4.438H34.328z"/>
		</g>
		<g>
			<path fill="#05872F" d="M31.456,30.488c0,1.156-0.297,2.172-0.892,3.047c-0.594,0.875-1.393,1.599-2.397,2.172
				c-1.188,0.688-2.493,1.177-3.915,1.469c-1.422,0.292-3.229,0.438-5.421,0.438H6.183V14.348h11.162
				c2.32,0,4.077,0.065,5.273,0.195c1.195,0.13,2.316,0.404,3.363,0.82c1.131,0.448,1.977,1.047,2.536,1.797
				c0.559,0.75,0.838,1.615,0.838,2.594c0,1.136-0.385,2.146-1.156,3.031c-0.771,0.886-1.835,1.537-3.193,1.953v0.125
				c1.952,0.302,3.515,0.919,4.689,1.852C30.868,27.647,31.456,28.905,31.456,30.488z M21.292,20.926
				c0-0.375-0.131-0.76-0.393-1.156c-0.262-0.396-0.668-0.682-1.22-0.859c-0.523-0.167-1.143-0.258-1.856-0.273
				c-0.715-0.016-1.779-0.023-3.194-0.023h-0.552v4.922h0.998c1.358,0,2.309-0.01,2.854-0.031c0.544-0.021,1.106-0.13,1.687-0.328
				c0.636-0.219,1.075-0.521,1.315-0.906C21.171,21.884,21.292,21.437,21.292,20.926z M23.286,30.379
				c0-0.719-0.198-1.281-0.594-1.688c-0.396-0.406-0.99-0.713-1.782-0.922c-0.481-0.135-1.143-0.211-1.984-0.227
				s-1.97-0.023-3.384-0.023h-1.464v5.828h0.425c2.065,0,3.494-0.01,4.286-0.031c0.792-0.021,1.598-0.161,2.419-0.422
				c0.721-0.229,1.248-0.565,1.581-1.008C23.12,31.444,23.286,30.941,23.286,30.379z"/>
		</g>
	</g>
	<g>
		<g>
			<path fill="#05872F" d="M94.468,31.887V20.254h7.273v1.375h-5.727v3.188h5.336v1.375h-5.336v4.32h5.727v1.375H94.468z"/>
			<path fill="#05872F" d="M110.187,31.887h-1.469v-4.969c0-0.401-0.02-0.774-0.059-1.121c-0.039-0.346-0.113-0.624-0.223-0.832
				c-0.12-0.219-0.287-0.381-0.5-0.488c-0.214-0.106-0.505-0.16-0.875-0.16c-0.365,0-0.741,0.098-1.129,0.293
				c-0.388,0.195-0.767,0.449-1.137,0.762v6.516h-1.469v-8.727h1.469v0.969c0.438-0.391,0.87-0.69,1.297-0.898
				c0.427-0.208,0.877-0.313,1.352-0.313c0.859,0,1.531,0.283,2.016,0.848c0.484,0.565,0.727,1.384,0.727,2.457V31.887z"/>
			<path fill="#05872F" d="M114.89,32.059c-0.802,0-1.427-0.228-1.875-0.684c-0.448-0.456-0.672-1.176-0.672-2.16v-4.836h-0.992
				v-1.219h0.992v-2.508h1.469v2.508h2.703v1.219h-2.703v4.148c0,0.443,0.008,0.784,0.023,1.023c0.016,0.24,0.075,0.464,0.18,0.672
				c0.088,0.183,0.231,0.319,0.43,0.41c0.198,0.091,0.466,0.137,0.805,0.137c0.239,0,0.471-0.035,0.695-0.105
				c0.224-0.07,0.385-0.129,0.484-0.176h0.086v1.32c-0.276,0.078-0.556,0.139-0.84,0.184
				C115.391,32.037,115.129,32.059,114.89,32.059z"/>
			<path fill="#05872F" d="M121.39,32.09c-1.391,0-2.47-0.392-3.238-1.176c-0.769-0.784-1.152-1.897-1.152-3.34
				c0-1.422,0.372-2.553,1.117-3.395c0.745-0.841,1.719-1.262,2.922-1.262c0.542,0,1.021,0.078,1.438,0.234
				c0.417,0.156,0.781,0.401,1.094,0.734c0.313,0.333,0.552,0.741,0.719,1.223c0.167,0.482,0.25,1.072,0.25,1.77v0.797h-6.047
				c0,1.016,0.255,1.792,0.766,2.328c0.51,0.537,1.216,0.805,2.117,0.805c0.323,0,0.639-0.036,0.949-0.109
				c0.31-0.073,0.59-0.167,0.84-0.281c0.266-0.12,0.489-0.235,0.672-0.348c0.182-0.112,0.333-0.217,0.453-0.316h0.086v1.602
				c-0.172,0.068-0.386,0.152-0.641,0.254c-0.255,0.102-0.484,0.181-0.688,0.238c-0.287,0.078-0.546,0.138-0.777,0.18
				C122.037,32.069,121.744,32.09,121.39,32.09z M123.109,26.551c-0.011-0.396-0.058-0.737-0.141-1.023
				c-0.083-0.286-0.203-0.528-0.359-0.727c-0.172-0.219-0.392-0.385-0.66-0.5c-0.269-0.114-0.601-0.172-0.996-0.172
				c-0.391,0-0.723,0.059-0.996,0.176s-0.522,0.288-0.746,0.512c-0.219,0.229-0.386,0.483-0.5,0.762
				c-0.115,0.279-0.188,0.603-0.219,0.973H123.109z"/>
			<path fill="#05872F" d="M130.647,24.739h-0.078c-0.109-0.031-0.226-0.051-0.348-0.059s-0.27-0.012-0.441-0.012
				c-0.396,0-0.789,0.086-1.18,0.258s-0.761,0.427-1.109,0.766v6.195h-1.468v-8.727h1.468v1.297
				c0.536-0.474,1.004-0.809,1.402-1.004s0.785-0.293,1.16-0.293c0.151,0,0.265,0.004,0.34,0.012s0.16,0.02,0.254,0.035V24.739z"/>
			<path fill="#05872F" d="M139.108,27.293c0,1.453-0.348,2.611-1.043,3.473c-0.695,0.862-1.574,1.293-2.637,1.293
				c-0.433,0-0.815-0.05-1.148-0.148s-0.675-0.252-1.023-0.461v3.656h-1.469V23.161h1.469v0.914c0.364-0.328,0.77-0.603,1.215-0.824
				c0.445-0.221,0.931-0.332,1.457-0.332c1,0,1.78,0.396,2.34,1.188C138.828,24.898,139.108,25.96,139.108,27.293z M137.593,27.458
				c0-0.995-0.159-1.767-0.477-2.316c-0.317-0.549-0.833-0.824-1.547-0.824c-0.417,0-0.819,0.093-1.207,0.277
				c-0.388,0.185-0.757,0.423-1.105,0.715v4.945c0.386,0.188,0.715,0.315,0.988,0.383c0.273,0.068,0.587,0.102,0.941,0.102
				c0.761,0,1.352-0.278,1.773-0.836C137.382,29.346,137.593,28.531,137.593,27.458z"/>
			<path fill="#05872F" d="M145.257,24.739h-0.078c-0.109-0.031-0.226-0.051-0.348-0.059s-0.27-0.012-0.441-0.012
				c-0.396,0-0.789,0.086-1.18,0.258s-0.761,0.427-1.109,0.766v6.195h-1.469v-8.727h1.469v1.297
				c0.536-0.474,1.004-0.809,1.402-1.004s0.785-0.293,1.16-0.293c0.151,0,0.265,0.004,0.34,0.012s0.16,0.02,0.254,0.035V24.739z"/>
			<path fill="#05872F" d="M147.999,21.7h-1.672v-1.523h1.672V21.7z M147.897,31.887h-1.469v-8.727h1.469V31.887z"/>
			<path fill="#05872F" d="M152.413,32.098c-0.583,0-1.129-0.078-1.637-0.234s-0.929-0.323-1.262-0.5v-1.648h0.078
				c0.125,0.099,0.272,0.208,0.441,0.328c0.169,0.12,0.395,0.245,0.676,0.375c0.25,0.115,0.524,0.216,0.824,0.305
				c0.3,0.089,0.61,0.133,0.934,0.133c0.234,0,0.484-0.027,0.75-0.082s0.464-0.124,0.594-0.207c0.183-0.12,0.313-0.247,0.395-0.383
				c0.081-0.135,0.121-0.338,0.121-0.609c0-0.349-0.095-0.612-0.285-0.789c-0.19-0.177-0.527-0.325-1.012-0.445
				c-0.188-0.047-0.433-0.102-0.734-0.164s-0.581-0.13-0.836-0.203c-0.667-0.192-1.151-0.491-1.453-0.895
				c-0.302-0.403-0.453-0.892-0.453-1.465c0-0.786,0.297-1.427,0.891-1.922c0.594-0.495,1.383-0.742,2.367-0.742
				c0.484,0,0.972,0.06,1.461,0.18c0.489,0.12,0.901,0.271,1.234,0.453v1.57h-0.078c-0.375-0.297-0.793-0.531-1.254-0.703
				s-0.926-0.258-1.395-0.258c-0.484,0-0.894,0.102-1.227,0.305s-0.5,0.511-0.5,0.922c0,0.365,0.099,0.637,0.297,0.816
				s0.516,0.327,0.953,0.441c0.219,0.058,0.462,0.113,0.73,0.168s0.551,0.119,0.848,0.191c0.646,0.162,1.132,0.43,1.457,0.805
				s0.488,0.886,0.488,1.531c0,0.375-0.074,0.73-0.223,1.066s-0.366,0.624-0.652,0.863c-0.313,0.261-0.665,0.458-1.059,0.594
				S153.007,32.098,152.413,32.098z"/>
			<path fill="#05872F" d="M160.983,32.09c-1.391,0-2.47-0.392-3.238-1.176c-0.769-0.784-1.152-1.897-1.152-3.34
				c0-1.422,0.372-2.553,1.117-3.395c0.745-0.841,1.719-1.262,2.922-1.262c0.542,0,1.021,0.078,1.438,0.234s0.781,0.401,1.094,0.734
				c0.313,0.333,0.552,0.741,0.719,1.223c0.167,0.482,0.25,1.072,0.25,1.77v0.797h-6.047c0,1.016,0.255,1.792,0.766,2.328
				c0.511,0.537,1.216,0.805,2.117,0.805c0.323,0,0.64-0.036,0.949-0.109c0.31-0.073,0.59-0.167,0.84-0.281
				c0.266-0.12,0.489-0.235,0.672-0.348c0.183-0.112,0.333-0.217,0.453-0.316h0.086v1.602c-0.172,0.068-0.386,0.152-0.641,0.254
				s-0.484,0.181-0.688,0.238c-0.286,0.078-0.546,0.138-0.777,0.18C161.631,32.069,161.338,32.09,160.983,32.09z M162.702,26.551
				c-0.011-0.396-0.058-0.737-0.141-1.023c-0.083-0.286-0.203-0.528-0.359-0.727c-0.172-0.219-0.392-0.385-0.66-0.5
				c-0.269-0.114-0.601-0.172-0.996-0.172c-0.391,0-0.723,0.059-0.996,0.176s-0.522,0.288-0.746,0.512
				c-0.219,0.229-0.386,0.483-0.5,0.762c-0.114,0.279-0.188,0.603-0.219,0.973H162.702z"/>
		</g>
		<g>
			<path d="M172.467,32.114c-0.823,0-1.576-0.125-2.258-0.375c-0.683-0.25-1.269-0.63-1.758-1.141
				c-0.49-0.516-0.865-1.153-1.125-1.914c-0.261-0.76-0.391-1.635-0.391-2.625c0-0.938,0.131-1.777,0.395-2.52
				c0.263-0.742,0.639-1.376,1.129-1.902c0.474-0.51,1.057-0.903,1.75-1.18c0.692-0.276,1.45-0.414,2.273-0.414
				c0.391,0,0.766,0.029,1.125,0.086c0.359,0.058,0.703,0.136,1.031,0.234c0.26,0.078,0.551,0.187,0.871,0.324
				c0.32,0.138,0.579,0.257,0.777,0.355v1.867h-0.133c-0.193-0.172-0.393-0.334-0.598-0.488c-0.206-0.153-0.496-0.319-0.871-0.496
				c-0.313-0.156-0.672-0.286-1.078-0.391c-0.406-0.104-0.844-0.156-1.313-0.156c-1.12,0-2.025,0.422-2.715,1.266
				c-0.69,0.844-1.035,1.966-1.035,3.367c0,0.781,0.091,1.464,0.273,2.047c0.182,0.583,0.445,1.078,0.789,1.484
				c0.333,0.401,0.735,0.707,1.207,0.918c0.471,0.211,1.001,0.316,1.59,0.316c0.438,0,0.872-0.031,1.305-0.094
				c0.432-0.063,0.797-0.156,1.094-0.281v-3.008h-2.688v-1.359h4.219v5.078c-0.198,0.089-0.463,0.201-0.793,0.336
				c-0.331,0.136-0.64,0.242-0.926,0.32c-0.381,0.115-0.725,0.2-1.031,0.258C173.276,32.085,172.904,32.114,172.467,32.114z"/>
			<path d="M182.787,24.739h-0.078c-0.109-0.031-0.226-0.051-0.348-0.059c-0.123-0.008-0.27-0.012-0.441-0.012
				c-0.396,0-0.789,0.086-1.18,0.258s-0.761,0.427-1.109,0.766v6.195h-1.469v-8.727h1.469v1.297
				c0.536-0.474,1.004-0.809,1.402-1.004s0.785-0.293,1.16-0.293c0.15,0,0.264,0.004,0.34,0.012c0.075,0.008,0.16,0.02,0.254,0.035
				V24.739z"/>
			<path d="M191.029,27.528c0,1.469-0.354,2.603-1.063,3.402c-0.709,0.8-1.651,1.199-2.828,1.199c-1.214,0-2.168-0.413-2.863-1.238
				c-0.695-0.825-1.043-1.946-1.043-3.363c0-1.458,0.357-2.591,1.074-3.398c0.716-0.807,1.66-1.211,2.832-1.211
				c1.177,0,2.119,0.402,2.828,1.207C190.675,24.93,191.029,26.064,191.029,27.528z M189.514,27.528c0-1.13-0.206-1.97-0.617-2.52
				c-0.412-0.549-0.998-0.824-1.758-0.824c-0.766,0-1.355,0.275-1.77,0.824c-0.414,0.55-0.621,1.39-0.621,2.52
				c0,1.094,0.207,1.923,0.621,2.488c0.414,0.565,1.004,0.848,1.77,0.848c0.755,0,1.34-0.277,1.754-0.832
				S189.514,28.643,189.514,27.528z"/>
			<path d="M199.334,31.887h-1.469v-0.969c-0.453,0.396-0.883,0.697-1.289,0.902s-0.859,0.309-1.359,0.309
				c-0.381,0-0.738-0.063-1.074-0.188s-0.629-0.323-0.879-0.594c-0.25-0.271-0.444-0.612-0.582-1.023
				c-0.139-0.411-0.207-0.911-0.207-1.5v-5.664h1.469v4.969c0,0.464,0.017,0.848,0.051,1.152c0.033,0.305,0.11,0.572,0.23,0.801
				c0.119,0.224,0.282,0.388,0.488,0.492c0.205,0.104,0.501,0.156,0.887,0.156c0.359,0,0.742-0.102,1.148-0.305
				s0.778-0.453,1.117-0.75v-6.516h1.469V31.887z"/>
			<path d="M208.779,27.293c0,1.453-0.348,2.611-1.043,3.473c-0.695,0.862-1.574,1.293-2.637,1.293c-0.433,0-0.815-0.05-1.148-0.148
				s-0.675-0.252-1.023-0.461v3.656h-1.469V23.161h1.469v0.914c0.364-0.328,0.77-0.603,1.215-0.824
				c0.445-0.221,0.931-0.332,1.457-0.332c1,0,1.78,0.396,2.34,1.188C208.499,24.898,208.779,25.96,208.779,27.293z M207.264,27.458
				c0-0.995-0.159-1.767-0.477-2.316c-0.317-0.549-0.833-0.824-1.547-0.824c-0.417,0-0.819,0.093-1.207,0.277
				c-0.388,0.185-0.757,0.423-1.105,0.715v4.945c0.386,0.188,0.715,0.315,0.988,0.383c0.273,0.068,0.587,0.102,0.941,0.102
				c0.761,0,1.352-0.278,1.773-0.836C207.053,29.346,207.264,28.531,207.264,27.458z"/>
		</g>
	</g>
</g>
<g>
</g>
<g>
</g>
<g>
</g>
<g>
</g>
<g>
</g>
<g>
</g>
<g>
</g>
<g>
</g>
<g>
</g>
<g>
</g>
<g>
</g>
<g>
</g>
<g>
</g>
<g>
</g>
<g>
</g>
</svg>
